<svg width="12" height="12" viewBox="0 0 12 12" xmlns="http://www.w3.org/2000/svg">
    <path d="M1.09992 8.23062L1.60089 8.73155C1.66764 8.79844 1.74454 8.83179 1.83147 8.83179C1.91819 8.83179 1.99506 8.79844 2.06181 8.73155L5.99995 4.79362L9.93791 8.73145C10.0047 8.79834 10.0816 8.83168 10.1684 8.83168C10.2553 8.83168 10.3321 8.79834 10.3989 8.73145L10.8998 8.23048C10.9667 8.16373 11 8.08686 11 8C11 7.91321 10.9666 7.83635 10.8998 7.76959L6.23043 3.10015C6.16367 3.03336 6.08678 2.99998 5.99995 2.99998C5.91312 2.99998 5.83636 3.03336 5.76964 3.10015L1.09992 7.76959C1.03317 7.83638 1 7.91324 1 8C1 8.08686 1.03317 8.16372 1.09992 8.23062Z"
          fill="currentColor"/>
</svg>
