<svg width="24" height="24" viewBox="0 0 24 24" xmlns="http://www.w3.org/2000/svg">
    <path d="M9.76938 16.9001L9.26845 16.3991C9.20155 16.3324 9.16821 16.2555 9.16821 16.1685C9.16821 16.0818 9.20155 16.0049 9.26845 15.9382L13.2064 12.0001L9.26855 8.06209C9.20166 7.9953 9.16832 7.91844 9.16832 7.83161C9.16832 7.74475 9.20166 7.66789 9.26855 7.60113L9.76952 7.10024C9.83627 7.03334 9.91314 7 10 7C10.0868 7 10.1637 7.03345 10.2304 7.10024L14.8999 11.7696C14.9666 11.8363 15 11.9132 15 12.0001C15 12.0869 14.9666 12.1636 14.8999 12.2304L10.2304 16.9001C10.1636 16.9668 10.0868 17 10 17C9.91314 17 9.83627 16.9668 9.76938 16.9001Z"
          fill="currentColor"/>
</svg>
