<svg width="24" height="24" viewBox="0 0 24 24" xmlns="http://www.w3.org/2000/svg">
    <path d="M14.3988 16.9001L14.8998 16.3991C14.9667 16.3324 15 16.2555 15 16.1685C15 16.0818 14.9667 16.0049 14.8998 15.9382L10.9618 12.0001L14.8997 8.06209C14.9666 7.9953 14.9999 7.91844 14.9999 7.83161C14.9999 7.74475 14.9666 7.66789 14.8997 7.60113L14.3987 7.10024C14.3319 7.03334 14.2551 7 14.1682 7C14.0814 7 14.0046 7.03345 13.9378 7.10024L9.26836 11.7696C9.20157 11.8363 9.1682 11.9132 9.1682 12.0001C9.1682 12.0869 9.20157 12.1636 9.26836 12.2304L13.9378 16.9001C14.0046 16.9668 14.0815 17 14.1682 17C14.2551 17 14.3319 16.9668 14.3988 16.9001Z"
          fill="currentColor"/>
</svg>
