<svg width="12" height="12" viewBox="0 0 12 12" xmlns="http://www.w3.org/2000/svg">
    <path d="M1.09992 3.60117L1.60089 3.10024C1.66764 3.03334 1.74454 3 1.83147 3C1.91819 3 1.99506 3.03334 2.06181 3.10024L5.99995 7.03816L9.93791 3.10034C10.0047 3.03345 10.0816 3.00011 10.1684 3.00011C10.2553 3.00011 10.3321 3.03345 10.3989 3.10034L10.8998 3.60131C10.9667 3.66806 11 3.74492 11 3.83179C11 3.91858 10.9666 3.99544 10.8998 4.06219L6.23043 8.73164C6.16367 8.79843 6.08678 8.8318 5.99995 8.8318C5.91312 8.8318 5.83636 8.79843 5.76964 8.73164L1.09992 4.0622C1.03317 3.99541 1 3.91855 1 3.83179C1 3.74492 1.03317 3.66806 1.09992 3.60117Z"
          fill="currentColor"/>
</svg>
